<?xml version="1.0" encoding="utf-8"?>
<!-- Generator: Adobe Illustrator 19.2.1, SVG Export Plug-In . SVG Version: 6.00 Build 0)  -->
<svg version="1.1"
	 id="svg2" xmlns:cc="http://creativecommons.org/ns#" xmlns:dc="http://purl.org/dc/elements/1.1/" xmlns:rdf="http://www.w3.org/1999/02/22-rdf-syntax-ns#" xmlns:svg="http://www.w3.org/2000/svg"
	 xmlns="http://www.w3.org/2000/svg" xmlns:xlink="http://www.w3.org/1999/xlink" x="0px" y="0px" viewBox="0 0 213.9 282.8"
	 style="enable-background:new 0 0 213.9 282.8;" xml:space="preserve">
<style type="text/css">
	.st0{fill:#FFFFFF;stroke:#000000;}
	.st1{fill:#606EA0;stroke:#000000;stroke-width:1.0047;}
	.st2{fill:none;stroke:#000000;}
	.st3{stroke:#000000;}
	.st4{fill:#1D1D1B;stroke:#FFFFFF;}
	.st5{fill:#F7DA1C;}
	.st6{fill:#1D1D1B;}
</style>
<g id="layer4">
	<g id="layer1">
		<path id="path2990" class="st0" d="M5.5,5.5v112.4c0,34.6,4.5,62.6,19.5,88.2c14.6,24.8,39.7,47.7,81.9,71.3
			c42.2-23.5,67.3-46.4,81.9-71.3c15-25.5,19.5-53.6,19.5-88.2V5.5H5.5z"/>
		<path id="path2992" class="st1" d="M18.9,17.7v99.9c0,33.7,4.2,59,17.7,82.1c12.3,21.1,33.6,41.5,70.3,63.1
			c36.7-21.6,58-42,70.3-63.1c13.4-23,17.7-48.4,17.7-82.1V17.7C194.9,17.7,18.9,17.7,18.9,17.7z"/>
		<path id="path11974" class="st2" d="M5.8,5.8l13.1,11.9"/>
	</g>
</g>
<g id="layer7">
	<path id="path7882" class="st3" d="M107,30.9L77,59.6h26L77,212.1l30-25.5l30,25.5L111,59.6h26L107,30.9z"/>
</g>
<g>
	<path class="st4" d="M174.8,77.6c-0.2-0.6-0.5-1-1-1.4c1.3-2.2,2.5-5,2.1-8.1c-0.4-3.1-2.4-5-5.2-5c-1.2,0-2.5,0.4-3.6,1.2
		c-0.6,0.4-4.4,2.9-10.2,6.6c-0.3-0.6-0.8-1.1-1.4-1.5c1.1-2,1.8-4.1,2-6c0.3-2.9-0.8-4.6-1.7-5.5c-0.8-0.7-1.9-1.2-3.2-1.2
		c-1.9,0-3.9,1-5.6,2l-0.1,0.1c-12.9,7.1-107.4,64.9-112.1,69.1c-4.3,3.8-5.6,8.4-3.6,12.6c2.3,5,8.9,8.5,16.1,8.5
		c3.4,0,6.6-0.8,9.2-2.3c0.5,1.1,1.3,2.2,2.4,3.2c1.3,1.2,3.3,2.6,6.6,3.2c0,0.1-0.1,0.1-0.1,0.2c-1.1,1.9-1.9,3.3-3.3,5
		c-2,2.4-2.6,5.3-3,7.7c-0.1,0.8-0.3,1.6-0.5,2.3l-0.6,2.5l-0.3,1.3c0,0-1.6,4.8-1.3,7.5l0,0.2l0,0.2c0.6,2,6.6,9.7,6.6,9.7l2.3-4.9
		l0.2-0.5c0.4-0.9,0.8-1.7,1.3-2.6l0.7-0.3c0.5-0.3,1-0.5,1.5-0.8c2.8-1.4,5.6-2.9,8.3-4.6l3.2-2l-0.6-0.6c2-1,4-2,6-3.3l3.9-2.4
		l-0.3-0.2c0.3-0.1,0.6-0.1,1-0.2l1.6-0.4c0.7,0,1.4,0.1,2.2,0.2l3.2,0.3v0l-1.3,0.4l1.1,2.9l0.1,0.3c0.8,2.2,1.8,4.9,4.4,6.9
		l4.4,3.3l1.2-5c0-0.2,0.1-0.4,0.1-0.6c0.2-0.8,0.4-1.7,0.5-2.7c0.4-0.2,0.8-0.4,1.1-0.7c0.8-0.5,1.5-0.9,2.2-1.2
		c0.5-0.2,1.2-0.3,2-0.3c0.5,0,1.2-0.1,1.8-0.2l0.6-0.1l0.1-0.1c0.3,0.4,0.6,0.9,0.9,1.2c0.1,0.2,0.2,0.3,0.3,0.5
		c-0.3,0.7-0.6,1.4-0.8,2.1l-1.5,4.1l4.9-0.1h0c0.1,0,0.4,0,0.6,0c0.3,0,0.7,0,1.2,0c0.7,0,2.7,0,4.4-1.4l0,0l0,0l0,0
		c1.2-1.1,3.7-3.4,2.7-6.5c-0.8-2.8-2.5-5.2-4-7.4c0.1-1.3,0.4-3,0.7-4.5l2.8,0.1l-0.7-3.7c0-0.3-0.1-0.6-0.2-0.9l0.8-0.2l0.3-2.1
		c0.1-0.5,0.1-1,0.3-1.5c1.7,1.2,3.9,1.8,6.4,1.8c2.7,0,5.7-0.7,8.9-2.1c2.7-1.2,4.1-3.5,4.2-5.1l0-3.1h-0.6c0.1-0.9,0-1.9-0.1-2.9
		l-0.5-2.1c0.1-0.5,0.1-1,0.1-1.3c0-0.2,0-0.3,0-0.4l0.5-4.1l-2.8,0.5l0.5-2.1l-2.4-0.3l0.2-1c2.7-1.2,5.5-2.7,8.4-4.4
		c4.4-2.7,7.6-5,10.4-7c0.5-0.3,1-0.7,1.5-1c2.5-1.8,4.4-6.4,3.9-9.2c1-0.9,1.8-2.2,2.4-4.1c0.4-1.3,0.9-3.2,0.5-4.8
		c2.7-2.7,3.7-7,2.7-9.4v0C174.6,84.5,175.7,80,174.8,77.6z M104.7,170.6L104.7,170.6C104.7,170.6,104.8,170.6,104.7,170.6
		C104.8,170.6,104.8,170.6,104.7,170.6z M113.8,157.4L113.8,157.4L113.8,157.4l-0.2,0.3c-0.4,0.7-0.8,1.3-1.2,1.7
		c-0.2,0-0.5,0-0.7,0c-1,0-1.9,0-3,0.2c-0.6,0-1.2,0.1-1.7,0.2c0.1-0.1,0.2-0.2,0.3-0.3c0.6-0.6,1.1-1.2,1.6-1.3h0h0
		c0.5-0.2,1.4-0.4,2.2-0.6c0.9-0.2,1.9-0.4,2.9-0.8C113.9,157.1,113.9,157.3,113.8,157.4z M121.2,174.9
		C121.2,174.9,121.2,174.9,121.2,174.9C121.2,174.9,121.2,174.9,121.2,174.9L121.2,174.9z"/>
	<g>
		<g>
			<path class="st5" d="M91.3,162.5c0,0-1.4-5.5,0.1-7c0.7-0.7,2.5-1.7,5.6-3.3c4.6-2.5,11.5-6.2,12.2-8.7l0.1-0.5h0.8
				c3.7,0,11.6,0.6,15.2,1.5l1,0.3l-0.6,0.7c-0.9,1.1-3.2,2.4-5.3,3.7c-1.5,0.8-3.4,2-3.7,2.4c-0.2,2.3-3.5,3.1-6.5,3.8
				c-1,0.2-1.8,0.4-2.5,0.7c-1.1,0.4-1.8,1.2-2.6,2c-0.7,0.7-1.4,1.5-2.3,2c-2.2,1.5-9.4,2.7-10.7,2.8l-0.5,0.1L91.3,162.5z"/>
			<path class="st6" d="M110.2,143.6c3.7,0,11.5,0.6,15,1.5c-1.6,2-9.1,5.3-9.2,6.4c-0.1,2.5-5.9,3-8.5,4c-2.2,0.8-3.2,3-5.1,4.1
				c-1.8,1.3-8.2,2.4-10.4,2.7l0,0c0,0-1.1-5.1,0-6.3c1.8-2,16.8-8.1,18-12.4C110.1,143.6,110.2,143.6,110.2,143.6 M110.2,142.3H110
				h-1.1l-0.2,1c-0.6,2.3-7.7,6-11.9,8.3c-3.2,1.7-5,2.7-5.8,3.5c-0.8,0.8-1,2.2-0.8,4.5c0.1,0.9,0.3,2.8,0.5,3.1l0.4,0.8h1h0.1h0.1
				c1.6-0.2,8.6-1.4,11-3c1-0.6,1.8-1.4,2.5-2.1c0.8-0.8,1.5-1.5,2.3-1.8l0,0l0,0c0.6-0.2,1.5-0.4,2.4-0.7c3-0.7,6.6-1.6,7-4.1
				c0.5-0.5,2.2-1.4,3.4-2.1c2.2-1.3,4.6-2.6,5.5-3.8l1.3-1.5l-2-0.5C122,142.9,114.1,142.3,110.2,142.3L110.2,142.3z"/>
		</g>
		<g>
			<g>
				<path class="st5" d="M101.7,112.4c0.1-2.1,3.1-11.3,4.5-13.1c1-1.2,36.5-22.9,43.4-27.1c1.2-0.7,2.2-1.1,3.1-1.1
					c0.9,0,1.6,0.4,1.8,1.2c0.8,2.1-1.4,6.7-3.8,8.4c-3.3,2.2-7.9,5.4-13.1,9c-11.9,8.2-26.8,18.4-34.7,23.4l-1.2,0.7L101.7,112.4z"
					/>
				<path class="st6" d="M152.7,71.6c2.9,0,0.4,6.5-2.4,8.4c-11,7.4-36.5,25.3-47.8,32.3c0.1-2,3.1-11,4.4-12.8
					c0.8-0.9,33.8-21.2,43.2-26.9C151.2,72,152.1,71.6,152.7,71.6 M152.7,70.3L152.7,70.3c-1,0-2.1,0.4-3.4,1.2
					c-4.5,2.7-15,9.1-24.9,15.3c-18.1,11.2-18.4,11.7-18.7,12l0,0v0c-1.4,1.9-4.5,11.3-4.6,13.5l-0.1,2.7l2.4-1.5
					c7.9-4.9,22.8-15.1,34.7-23.4c5.3-3.6,9.8-6.7,13.1-9c2.5-1.7,5-6.6,4.1-9.1C154.9,71,153.9,70.3,152.7,70.3L152.7,70.3z"/>
			</g>
			<g>
				<path class="st5" d="M70.8,109.2l0.5-0.3c1.6-1,39.7-25.4,47-29.2l1.1-0.6l0,1.1c0,0.3,0,0.7,0.1,1.1c0.2,3,0.6,8.3-3.5,12
					l-0.1,1.2c-0.2,1.9-0.5,4.7-2,6.7c-1.4,1.9-28.9,20.6-32,22.8l-0.6,0.4L70.8,109.2z"/>
				<path class="st6" d="M118.7,80.2c0.1,3,1.6,10.4-5.5,14.2c-9.6,5.1-18.5,11.2-27.7,16.9c-0.3,0.3-0.6,0.7-0.8,1.2
					c0.9-0.3,26.2-15.4,30.4-18.1c-0.2,2-0.5,4.6-1.9,6.4c-1.4,1.9-31.8,22.6-31.8,22.6l-9.6-14.1C71.7,109.4,111.4,84,118.7,80.2
					 M120,78l-2.1,1.1c-7.3,3.8-45.4,28.2-47,29.2l-1.1,0.7l0.7,1l9.6,14.1l0.8,1.2l1.3-0.9c7.1-4.9,30.5-20.8,32.1-22.9l0,0
					c1.6-2,1.9-5,2.1-7l0.1-1c4.2-3.9,3.8-9.4,3.6-12.4c0-0.4,0-0.8-0.1-1.1L120,78L120,78z"/>
			</g>
			<g>
				<path class="st5" d="M47.1,146.5c-6,0-11.7-3-13.6-7c-1.5-3.3-0.4-6.8,3.1-10c4.4-4,99.3-61.9,111.6-68.8l0.1-0.1
					c1.4-0.8,3-1.6,4.2-1.6c0.7,0,1.1,0.3,1.3,0.4c0.8,0.8,1.2,2,1,3.6c-0.4,3.7-3.4,8.7-6.2,10.5c-6.4,3.9-29.8,17.8-30.1,18
					l-2.2,1.3l1.2-2.2c0,0,1.9-3.6,1-7.4l-0.1-0.4l0.3-0.3c0.5-0.4,2.1-1.4,4.3-2.8c-13.5,8.4-27.1,16.8-40.5,25.2l0.1,0.5
					c0.6,2.5-0.6,4.3-1.9,5.8c0.2-0.1,0.4-0.2,0.6-0.3c1.9-0.8,3.9-1.6,6.2-1.6h1l-0.2,0.8c-0.7,2.6-2.8,4.1-4.8,5.7
					c-0.8,0.6-1.6,1.2-2.3,1.8c1.5-0.2,3.6-0.6,5.6-1c3.2-0.6,6.2-1.1,7.4-1.2l2.5-0.2l-2,1.3c-5.6,3.7-36.8,25.7-37.9,26.6
					C54.2,145.4,50.8,146.5,47.1,146.5z"/>
				<path class="st6" d="M152.5,59.7c0.3,0,0.6,0.1,0.8,0.3c2.7,2.4-1.5,10.9-5.1,13.1c-6.4,4-30.1,18-30.1,18s2-3.7,1-7.9
					c1.7-1.3,18.9-11.9,25.5-16.2c0.7-0.5,2.8-1.9,3.4-2.4c-0.5,0.1-2.8,1-3.4,1.2c-0.3,0.2-0.6,0.4-1,0.6
					c-31.2,19.3-62.3,38.7-93.4,58.1c-2.6,1.6-5.7,3-7.3,5.6c-1.1,2-1.7,4.5-0.5,6.6c1.9,2.5,5.4,3.8,8.8,3.8c0.2,0,0.5,0,0.8,0
					c-2.1-1.3-4.9-1-6.8-2.4c-2.2-1.4-3.3-4.3-2.1-6.5c0.6-1.6,2.2-2.7,3.7-3.6c-0.1,2.2-1.2,4.9,0.7,6.7c1.9,1.4,4.6,1.7,7,2
					c-0.9-0.8-1.9-1.3-3.1-1.8c-0.2,0.1-0.7,0.4-1,0.6c-0.9-0.7-2-1.3-2.7-2.3c-1-2.3,0-6,0-6l3.5-2.2c0,0,0.4,3,1.6,3.5
					c0.6,0.3,1.4,0.4,2,0.6c0.5,1,1.1,1.9,1.5,2.9c1.5,0,3,0.2,4.5,0.3c-1.1-0.7-2.3-1.1-3.6-1.1l0,0c-0.4-0.7-1.6-2.7-1.6-2.7
					s-1.6-0.2-2.4-0.5c-0.4-1.1-0.3-2.7-0.8-3.8c2.6-1.7,7.2-4.4,7.2-4.4s-0.4,2.8-0.6,4.2c0.3,0,0.6,0,0.9,0c1.5,0,3,0,4.4,0.3
					c-0.9,3.9-0.6,5.7-0.6,5.7s1.2-4.2,1.5-6.2c-1.7-0.3-3.5-0.4-5.2-0.7c0.2-1.4-0.1-2.8,0.8-4c0,0,6.3-3.9,9.1-5.7
					c-0.4,1.1-0.6,2.3-1.1,2.9c-0.7,1-2.9,2.3-3.8,3.3c2.6-0.8,5.2-1.8,8.1-1.8c0.3,0,0.5,0,0.8,0c-0.1,1.3-0.3,2.7-1.2,3.9
					c-1,1.1-2.3,2-3.5,3c2.6,0,5.1-0.8,7.5-1.8c-0.3,0-0.5,0-0.8,0c-0.8,0-1.7,0.1-3.1,0.4c1.7-1.6,2.1-4.5,2.1-6.2
					c-0.4-0.1-0.9-0.2-1.5-0.2c-1.4,0-3.2,0.3-4.4,0.5c1.4-1.6,2.1-2.6,2.5-5c0,0,7.1-4.2,10.4-6.5c0.8,3.2-1.8,5-3.2,7
					c3-0.9,5.6-2.6,8.8-2.6c0,0,0.1,0,0.1,0c-1,4-5.8,5.3-8.2,8.5c2.3-0.1,12.4-2.2,14.8-2.4c-5.4,3.6-36.8,25.7-37.9,26.6
					c-2.7,2.1-5.9,3-9.2,3c-9.6,0-18.8-7.9-10-15.9c4-3.7,98.1-61.2,111.4-68.6C149.4,60.8,151.3,59.7,152.5,59.7 M152.5,58.4
					c-1.4,0-3.1,0.9-4.6,1.7l-0.1,0.1C135.5,67,40.4,125,36,129c-5,4.6-4.2,8.7-3.2,10.7c2,4.3,8,7.4,14.3,7.4
					c3.9,0,7.4-1.2,10.1-3.3c1.1-0.9,32.3-22.9,37.8-26.6l4-2.7l-5,0.3c-1.3,0.1-4.3,0.6-7.5,1.2c-1,0.2-2,0.3-3,0.5
					c0.1-0.1,0.2-0.2,0.3-0.2c2-1.5,4.4-3.2,5-6l0.4-1.6l-1.8,0h-0.1c-1.8,0-3.4,0.5-4.9,1c0.7-1.2,1.1-2.7,0.7-4.4v0
					c11.4-7.1,23-14.3,34.5-21.4c0.7,3.5-1,6.6-1,6.6l-2.4,4.3l4.5-2.7c0.2-0.1,23.7-14.1,30.1-18c3-1.9,6.1-7.1,6.5-11
					c0.2-1.8-0.2-3.2-1.2-4.1C154,58.8,153.4,58.4,152.5,58.4L152.5,58.4z"/>
			</g>
		</g>
		<g>
			<g>
				<path class="st5" d="M134.8,126.8c-0.9-1.4-10.2-6.7-15.3-9.5c-1.9-1.1-3.6-2-4.9-2.8c-1.9-1.1-2.5-1.5-2.1-2.1l0.2-0.4l0.3,0
					c2.8-1.2,37.3-22.4,50.4-30.4c3.3-2,5.6-3.4,6.2-3.8c0.5-0.3,0.9-0.4,1.3-0.4c0.6,0,1.2,0.3,1.4,1c0.8,1.9-0.9,6.9-3.3,8.7
					c-0.1,0.1-0.3,0.3-0.7,0.4c0.1,0,0.2,0,0.4,0c0.3,0,1,0.1,1.3,1c0.6,1.5,0,4.9-2.5,6.8c-0.4,0.3-0.9,0.7-1.5,1.2
					c0.5,0,0.9,0.4,1.1,0.9c0.6,1.6-0.8,5.6-2.2,6.5c-0.6,0.4-1.3,0.8-1.9,1.2c0.5,0.1,0.9,0.4,1.1,0.9c0.7,1.7-1,6-2.9,7.3
					c-0.5,0.3-1,0.7-1.5,1c-2.9,2.1-5.9,4.3-10.3,6.9c-4.9,3-9.7,5.2-13.9,6.4l-1.4,0.4L134.8,126.8z"/>
				<path class="st6" d="M171,78c2,0,0.3,6.6-2.3,8.5c-1.6,1.1-16.8,9.7-23.4,13.7c-2,1.2-3,2.3-2.9,2.4c1.5-0.7,16.1-8.7,25.8-14.2
					c0.3-0.3,0.5-0.3,0.7-0.3c1.4,0,1.3,4.4-1.6,6.7c-3.1,2.8-16.1,9.3-21.4,12.4c-1.3,0.8-3.6,2.7-3.5,2.9
					c1.2-0.6,18.6-9.9,22.8-12.6c0.4-0.3,0.7-0.4,0.9-0.4c1.6,0,0,5.3-1.4,6.2c-8,5-16,9.4-19.8,11.7c-1.6,1-2.6,2.2-2.5,2.3
					c5.4-3,15.4-8.8,19.7-11.3c0.3-0.2,0.6-0.3,0.9-0.3c1.8,0,0.1,5.6-2,7.1c-3.3,2.3-6.6,4.8-11.7,7.9c-4.1,2.5-8.9,5-13.7,6.3
					c0.6-1.7-22.7-13.7-22.4-14.2l0,0c1.2,0,53.5-32.3,56.9-34.3C170.4,78.1,170.7,78,171,78 M171,76.7c-0.5,0-1.1,0.2-1.7,0.5
					c-0.6,0.4-2.9,1.7-6.2,3.8c-12.8,7.9-46.3,28.4-50.1,30.3l-0.6,0l-0.4,0.8c-0.6,1,0.5,1.8,0.9,2c0.3,0.2,0.8,0.5,1.5,0.9
					c1.2,0.7,2.9,1.7,4.9,2.8c4.7,2.7,13.2,7.5,14.8,9.1l-0.7,2l2.8-0.8c4.3-1.2,9-3.4,14.1-6.4c4.4-2.7,7.5-4.9,10.3-7
					c0.5-0.3,1-0.7,1.5-1c2.1-1.5,3.9-6,3.1-8c-0.1-0.3-0.2-0.5-0.4-0.7c0.3-0.2,0.7-0.4,1-0.7c1.8-1.1,3.1-5.5,2.5-7.2
					c-0.1-0.3-0.3-0.6-0.5-0.8c0.3-0.2,0.5-0.4,0.7-0.6c2.7-2.1,3.3-5.8,2.6-7.5c-0.2-0.4-0.4-0.8-0.8-1c2.4-2.2,3.8-7,3-9
					C172.7,77.3,171.9,76.7,171,76.7L171,76.7z"/>
			</g>
			<g>
				<g>
					<path class="st5" d="M125.9,142.3c-0.1,0-7.6-4.7-14.9-9.4c-15.3-9.7-15.2-10.4-15.2-10.9v-0.3l0.3-0.2
						c8.6-5.4,36.4-21.6,39.7-21.6c0.2,0,0.4,0,0.6,0.2c0.8,0.5,1.2,1.3,1.2,2.3c0,1.7-1,3.8-2.6,5.5l0.3,0.8
						c0.2,0.5-0.2,3.8-1.7,5.4l0.7-0.4l-0.1,1.4c-0.1,1.8-0.4,3.1-2.3,4.8c1.5-0.6,2.7-1,3.6-1c0.4,0,0.8,0.1,1.1,0.2l0.5,0.3
						l-0.1,0.5c-0.1,0.3-0.1,0.6-0.2,0.9c-0.2,1-0.5,2.2-1.4,3c0.3-0.1,0.7-0.1,0.9-0.1c0.5,0,0.9,0.1,1.1,0.4
						c0.1,0.2,0.3,0.5,0.2,1c-0.2,1.1-1,2.2-2.2,3.2c0.8-0.2,1.6-0.4,2.3-0.4c0.6,0,1.2,0.1,1.6,0.3l0.5,0.2l-0.1,0.5
						c-0.1,0.6-0.6,1.1-1.5,1.8c0.3-0.1,0.6-0.1,1-0.1c0.4,0,0.9,0,1.4,0.1l1.1,0.1l-0.1,0.7c-0.5,2.1-2,4-4.1,5.1
						c-2,1.1-10.4,5.5-10.8,5.7l-0.4,0.2L125.9,142.3z"/>
					<path class="st6" d="M135.7,100.6c0.1,0,0.1,0,0.2,0c2.1,1.4,0.3,5.8-3.2,8.4c-6.2,4.5-25.8,14.9-24.6,15.2
						c1.1-0.5,19-10.4,26.3-15.2c0.1,0.3-0.3,3.9-1.9,5c-0.8,0.7-1.8,1.3-2.8,1.9c-4.5,2.8-11,6.2-15.8,8.6
						c-1.5,0.8-1.1,0.8-2.5,1.7c1.9-0.3,15.8-8.2,21.7-11.3c-0.3,3.4-0.1,4.6-15.2,12c-0.9,0.4-1.2,1.1-1,1.1c0.1,0,0.3-0.1,0.5-0.3
						c0,0-0.1,0.1,0,0.1c0.2,0,3.7-2,7.6-4c3.9-2,8.1-4.1,10.1-4.1c0.3,0,0.5,0,0.7,0.1c-0.4,1.2-0.5,3-1.7,3.7
						c-1.7,1-10.4,5-15.6,7.8c-0.9,0.5,0.1,0.8-0.5,1.2c3.4-2,14.9-8.2,17.9-8.2c0.5,0,0.7,0.2,0.7,0.6c-0.7,3.8-9.4,7-13.4,8.7
						c0.3-0.1,0.7-0.2,1-0.2c0.2,0,0.3,0,0.2,0.3c4.4-1.9,9.9-5.2,13-5.2c0.5,0,0.9,0.1,1.3,0.3c-0.5,2-8.7,5.3-12.7,7.6
						c-0.9,0.5-0.4,0.5-1,0.9c2.3-0.9,10.6-4.7,12.2-5.5c0.7-0.4,1.2-0.5,1.8-0.5c0.4,0,1,0,1.6,0.1c-0.4,1.9-1.8,3.6-3.8,4.7
						c-2,1.2-10.8,5.7-10.8,5.7s-29.9-18.4-29.8-19.7C106.9,115.6,133,100.6,135.7,100.6 M135.7,99.3c-0.7,0-2.3,0-17.6,8.5
						c-7.7,4.3-17,9.7-22.6,13.2l-0.6,0.3l0,0.7c0,1-0.1,1.6,15.5,11.5c7.4,4.7,14.9,9.3,14.9,9.4l0.8,0.5l0.8-0.4
						c0.3-0.2,8.7-4.5,10.8-5.7c2.3-1.2,3.9-3.2,4.4-5.5l0.3-1.4l-1.6-0.2l-0.3,0c-0.3,0-0.5,0-0.8-0.1c0.2-0.3,0.3-0.6,0.4-0.9
						l0.2-1l-1-0.5c-0.5-0.3-1.2-0.4-1.9-0.4c-0.1,0-0.2,0-0.4,0c0.5-0.7,0.8-1.3,1-2c0.1-0.7-0.2-1.3-0.4-1.5
						c-0.2-0.2-0.6-0.5-1.2-0.6c0.3-0.7,0.5-1.4,0.7-2.1c0-0.3,0.1-0.6,0.2-0.8l0.3-1l-1-0.5c-0.4-0.2-0.9-0.3-1.4-0.3l0,0
						c-0.4,0-0.9,0-1.5,0.2c0.6-1,0.8-2.1,0.9-3.3v-0.2l0.1-1.8c1-1.8,1.2-4.1,1-4.7l-0.1-0.5c1.6-1.8,2.5-3.9,2.5-5.7
						c0-1.6-0.8-2.4-1.5-2.9C136.6,99.5,136.3,99.3,135.7,99.3L135.7,99.3L135.7,99.3L135.7,99.3z"/>
				</g>
				<g>
					<g>
						<path class="st5" d="M75.6,130.1l0.5-0.4c0.7-0.4,16.2-11,18.7-12.5l0.3-0.2c2.7-1.7,6-3.7,9.3-3.7c1.5,0,2.9,0.4,4.2,1.3
							l0.4,0.3l-0.2,0.5c-0.6,1.5-3,6-4.9,7.4c-0.1,0.1-0.3,0.3-0.5,0.4c0.6-0.2,1.3-0.3,2-0.3h0c0.9,0,1.8,0.3,2.6,0.6
							c0.3,0.1,0.7,0.2,1.1,0.3l0.9,0.2l-0.4,0.7c-0.3,0.5-0.4,1-0.5,1.4c-0.2,0.6-0.4,1.3-0.9,1.9c0.7-0.1,1.5-0.3,2.1-0.3
							c1.2,0,2.2,0.3,3.1,0.7l0.4,0.2v0.4c0,1.3-0.8,2.2-2,2.9c0.2,0,0.3,0,0.5,0h0h0c1.6,0.1,2.5,0.5,2.9,1.1
							c0.4,0.8-0.1,1.6-0.5,2.1c-0.1,0.1-0.2,0.3-0.2,0.3l-0.1,0.4l-0.5,0.1c-0.1,0-0.3,0-0.4,0l-0.6,0.8c-0.7,0.9-2.2,2.1-3.4,3.1
							c-0.4,0.3-0.7,0.6-1,0.8l-0.2,0.2h-0.3c-1.9,0-9.1,7.1-13.5,12.1l-0.6,0.7L75.6,130.1z"/>
						<path class="st6" d="M104.5,114c1.3,0,2.5,0.3,3.7,1.1c-0.7,1.8-3,6-4.7,7.2c-2.2,1.9-5.1,3-7.3,4.9c3.8-1.3,5.9-3.7,9.3-3.7
							h0c1.2,0,2.3,0.6,3.5,0.8c-1,1.7-0.4,3.3-2.9,4.3c-3.4,1.3-5.2,1.8-7.9,3.3c3.9-0.7,8.4-3.7,12.2-3.7c1,0,1.9,0.2,2.8,0.7
							c-0.1,4-10.4,4.4-13.3,6.5c2.4-0.4,10.1-2.9,12.6-3c4.1,0.3,1.8,2,1.6,2.7c-2.8,0.3-10.2,1.5-12.9,2.3
							c0.2,0.2,0.5,0.3,0.8,0.3c0.7,0,1.7-0.4,2.3-0.5c2.5-0.6,6.3-1,8-1c0,0,0.1,0,0.2,0c-0.9,1.1-3.2,2.9-4.3,3.8l0,0
							c-3.2,0-14.1,12.4-14.1,12.4l-17.5-22.4c0,0,16.1-11,18.6-12.5C98,116.1,101.2,114,104.5,114 M104.5,112.7
							c-3.5,0-7,2.1-9.7,3.8l-0.3,0.2c-2.6,1.6-18.1,12.1-18.7,12.6l-1.1,0.7l0.8,1L93,153.4l1.1,1.4l1.2-1.4c0,0,2.7-3,5.6-6
							c5.6-5.6,7.2-5.9,7.3-5.9h0.6l0.4-0.3c0.2-0.2,0.6-0.5,1-0.8c1.2-1,2.7-2.3,3.5-3.2l0.4-0.6c0,0,0,0,0.1,0l1-0.1l0.2-0.8
							c0,0,0.1-0.2,0.1-0.3c0.4-0.6,1.1-1.6,0.5-2.7c-0.5-0.8-1.4-1.2-2.4-1.3c0.6-0.7,0.9-1.4,1-2.3v-0.8l-0.8-0.4
							c-1-0.5-2.2-0.8-3.5-0.8l0,0c-0.3,0-0.6,0-0.9,0c0.1-0.3,0.2-0.6,0.3-0.9c0.1-0.5,0.2-0.9,0.5-1.3l0.8-1.4l-1.7-0.4
							c-0.3-0.1-0.6-0.2-1-0.3c-0.8-0.3-1.8-0.6-2.9-0.6h0l0,0c1.8-2.1,3.6-5.7,4-6.7l0.4-0.9l-0.9-0.6
							C107.7,113.1,106.1,112.7,104.5,112.7L104.5,112.7z"/>
					</g>
					<g>
						<path class="st5" d="M95.2,152.3c0.3-0.3,0.9-1.2,1.6-2.3c2.9-4.2,5.6-8,6.7-8.7c0.4-0.3,0.8-0.5,1.2-0.8
							c2.1-1.3,4.7-2.9,5.5-4l0.6-0.7c3-3.7,3.6-4.7,6.7-5.9l0.6-0.3l0.3,0.6c0.7,1.3,0.5,2.1,0.3,2.7c0,0.1,0,0.3-0.1,0.3
							c0,0.1,0,0.2,0,0.3c0.1,0,0.2-0.1,0.3-0.1l0.1,0h0.1c0.4,0,0.9,0,1.4,0c1,0,2,0.1,3,0.2c0.4,0,0.8,0.1,1.2,0.1l1.4,0.1l-0.9,1
							c-0.3,0.3-0.4,0.6-0.5,0.9c-0.1,0.4-0.2,0.8-0.6,1.1c0.7-0.1,1.5-0.3,2.2-0.3c0.1,0,0.3,0,0.5,0c1.6,0,3.7,1.2,5,2l0.4,0.2
							l0.9,0.5l-0.8,0.6c-0.7,0.5-1.1,0.9-1.6,1.5c-1.3,1.5-3.5,4-14.2,11l-0.6,0.4l-0.4-0.5c-0.1,0-0.6-0.3-2.4-0.3
							c-3.9,0-10.9,0.9-14.6,1.3c-1.3,0.2-2.1,0.3-2.6,0.3l-1.6,0.1L95.2,152.3z"/>
						<path class="st6" d="M117.9,130.4c0.8,1.5,0.2,2.1,0.2,2.7c-0.1,1.3-6.1,5.9-6.9,6.9c1.3-0.5,6.8-5.7,8.2-6.1
							c0.4,0,0.8,0,1.3,0c1.4,0,2.7,0.2,4,0.3c-1.2,1.3,0.1,2-3.2,3.3c-3.4,1.3-7.8,5-9.4,7.5c2.4-2.3,5.8-5.3,8.8-6.6
							c1.9-0.9,3.5-1.2,5.6-1.4c0.1,0,0.2,0,0.4,0c1.6,0,3.9,1.4,5,2.1c-2.7,1.8-0.8,2.7-15.8,12.5c-0.3-0.3-1.4-0.5-3-0.5
							c-5.2,0-15.5,1.5-17.3,1.7c1.1-1.4,6.7-9.9,8.2-10.9c2.2-1.4,5.8-3.5,6.9-5C114.3,132.4,114.9,131.5,117.9,130.4 M118.7,128.7
							l-1.3,0.5c-3.3,1.3-4.1,2.3-7,6.1l-0.6,0.7c-0.8,1-3.4,2.7-5.3,3.9c-0.4,0.3-0.8,0.5-1.2,0.8c-1.2,0.8-3.3,3.6-7,8.9
							c-0.7,1-1.4,2-1.6,2.3l-1.8,2.3l3.2-0.3c0.4,0,1.4-0.2,2.6-0.3c3.7-0.5,10.6-1.3,14.5-1.3c1.2,0,1.7,0.1,2,0.1l0.7,0.9
							l1.2-0.8c10.7-7,13-9.6,14.4-11.2c0.5-0.6,0.8-1,1.5-1.4l1.7-1.1l-1.8-1c-0.1,0-0.2-0.1-0.3-0.2c-1.8-1-3.7-2.1-5.5-2.1
							c-0.2,0-0.4,0-0.6,0c-0.3,0-0.6,0.1-0.9,0.1c0,0,0-0.1,0-0.1c0.1-0.3,0.1-0.5,0.3-0.7l1.8-1.9l-2.8-0.2c-0.4,0-0.8,0-1.1-0.1
							c-1-0.1-2-0.2-3-0.2c-0.3,0-0.6,0-0.9,0c0.1-0.7,0.1-1.5-0.5-2.7L118.7,128.7L118.7,128.7z"/>
					</g>
				</g>
			</g>
			<g>
				<path class="st5" d="M86.7,153.2c-5.7-1.9-11.2-3-15.2-3.8c-3.3-0.7-5.7-1.2-6.9-1.8c-1.1-0.4-1.8-1.7-2.2-2.7
					c-0.8-2.1-1.1-5,0-6.5c0.9-1.4,3.3-1.8,5.1-1.9l0.7-0.4c0.7-0.4,1.5-1.2,2.2-2c1.3-1.3,2.6-2.7,4.4-3c0.1,0,0.3,0,0.5,0l0.9-0.6
					c1.2-0.8,2.6-1.4,4-2c1-0.4,1.9-0.9,2.9-1.3c0.7-0.4,1.6-0.6,2.7-0.6c0.7,0,1.4,0.1,2,0.1c0.4,0,0.9,0.1,1.3,0.1l0.6,0l0,0.6
					c0,0.2,0,0.4,0.1,0.5c0.1,0.8,0.1,1.4-0.4,2.1c0.9-0.2,1.6-0.2,2.6-0.2h1v0.7c0,0.1,0,0.3,0,0.4c0,0.7,0.1,1.5-0.4,2
					c0,0-0.1,0.1-0.1,0.1c0.3,0,0.5-0.1,0.8-0.1c0.6,0,1.1,0.2,1.6,0.5l0.7,0.3l-0.4,0.6c-0.1,0.2-0.3,0.4-0.4,0.6
					c-0.4,0.6-0.7,1-1.4,1.5c0.5,0,1,0.1,1.5,0.2c0.6,0.1,1.1,0.2,1.7,0.2h1.1l-0.4,0.9c-0.5,1-1.2,1.7-2,2.1c0.5,0,0.9,0.2,1.3,0.3
					l0.8,0.3l-0.4,0.7c-1.8,3.2-7.3,10.2-9.4,11.9l-0.3,0.3L86.7,153.2z"/>
				<path class="st6" d="M85.8,127.2c1.1,0,2.2,0.2,3.2,0.3c0.1,1.5,0.9,1.9-2.8,4.3c3.1-1.3,4-1.2,5.9-1.3c0,0.6,0.1,1.7-0.2,2.1
					c-0.6,0.7-1.9,1.4-2.6,2c2.2-0.6,3.1-0.9,3.8-0.9c0.4,0,0.8,0.1,1.3,0.4c-1,1.3-1.1,1.9-3.8,3.4c0.8-0.2,1.5-0.3,2.1-0.3
					c1.4,0,2.4,0.3,3.7,0.3c-1,2-2.5,2.2-5.4,3.2c1.3-0.1,2.2-0.2,2.9-0.2c1.2,0,1.7,0.1,2.2,0.3c-1.7,3.1-7.3,10.1-9.3,11.7
					c-10.4-3.4-19.7-4.3-22-5.6c-1.9-0.6-3.3-6.3-1.9-8.3c0.7-1.2,3.2-1.6,5.5-1.6c1.8,0,3.6,0.3,4.6,0.6c0.6,1.7-2.1,2.2-3.2,3.1
					c1.7,0.2,3.4,0.5,5.1,0.7c-1.1,0.9-2.1,1.8-3.2,2.7c0.8,0.4,1.5,0.8,2.3,1.2c-0.3-0.5-1.5-1.3-1.5-1.3l3.5-3l-4.5-0.5
					c0,0,2.3-1.3,2.3-3.1c-0.7-0.7-1.7-0.8-2.9-0.8c-0.4,0-0.7,0-1.1,0c-0.5,0-1,0-1.4-0.1c2.1-1.3,3.7-4.4,6.3-4.8
					c0.1,0,0.3,0,0.4,0c1.9,0,5.6,1.4,6.3,2.6c1.6,2.7,1.5,4.6,3.5,6.8c-0.5,0.3-1.4,1-1.8,1.3c0.2,0.8,0.6,1.7,1.1,2.3
					c-1.4,0.3-2.5,0.5-3.6,1.3c1.3-0.1,3.1-0.7,4.3-1c0.2-0.7-0.9-2.3-0.9-2.3s1.7-0.9,2-1.6c-0.8-1.3-2-2.6-2.5-4.1
					c-0.4-1.1-0.5-2.3-1.3-3.3c-1.4-1.2-3.8-2.2-5.6-2.7c2-1.3,4.6-2.2,6.8-3.3C84.2,127.4,85,127.2,85.8,127.2 M85.8,125.9
					c-1.2,0-2.2,0.2-3.1,0.7c-0.9,0.5-1.8,0.9-2.8,1.3c-1.4,0.6-2.8,1.3-4.1,2l-0.7,0.5c-0.1,0-0.3,0-0.4,0
					c-2.1,0.3-3.5,1.8-4.9,3.2c-0.7,0.7-1.4,1.4-2,1.8l-0.5,0.3c-2.2,0.1-4.6,0.7-5.5,2.2c-1.2,1.7-0.9,4.8,0,7
					c0.4,1.1,1.2,2.6,2.6,3.1c1.3,0.7,3.6,1.1,7,1.8c4,0.8,9.4,1.9,15.1,3.8l0.8,0.3l0.6-0.5c2.1-1.7,7.8-8.9,9.6-12.1l0.7-1.3
					l-1.5-0.5c0.4-0.4,0.8-0.9,1.1-1.5l0.9-1.8h-2.2c-0.5,0-1.1-0.1-1.6-0.1c0,0-0.1,0-0.1,0c0.2-0.2,0.3-0.4,0.5-0.7
					c0.1-0.2,0.2-0.3,0.4-0.6l0.9-1.1l-1.3-0.7c-0.5-0.3-1-0.5-1.6-0.6c0.1-0.5,0.1-1.1,0.1-1.5c0-0.1,0-0.3,0-0.4v-1.3l-1.5,0H92
					c-0.5,0-0.9,0-1.4,0c0.1-0.4,0-0.9,0-1.4c0-0.2,0-0.3,0-0.5l-0.1-1.1l-1.3-0.1c-0.4,0-0.8-0.1-1.2-0.1
					C87.2,126,86.5,125.9,85.8,125.9L85.8,125.9z"/>
			</g>
			<g>
				<g>
					<path class="st5" d="M61.4,183.7c-1-1.3-2.1-2.8-2.7-4.6v0v0c-0.4-3,0.5-4.8,3.1-9.7c0.3-0.6,0.6-1.2,1-1.8l0.2-0.4l0.5,0.1
						c2.5,0.4,4.3,2.2,6,3.8c0.2,0.2,0.4,0.3,0.5,0.5l0.4,0.4l-0.4,0.4c-0.3,0.4-0.7,0.9-1.1,1.3c-0.7,0.8-1.4,1.7-2,2.4
						c-1.8,2-3,4.6-4.1,7l-0.7,1.6L61.4,183.7z"/>
					<path class="st6" d="M63.4,167.9c2.5,0.4,4.4,2.5,6.1,4.1c-1,1.2-2.1,2.7-3.1,3.7c-2,2.3-3.2,5-4.5,7.7
						c-1.1-1.3-2.1-2.7-2.6-4.4C59,175.9,60.2,174,63.4,167.9 M62.6,166.4l-0.5,0.9c-0.3,0.7-0.6,1.3-1,1.8c-2.5,4.8-3.6,6.8-3.2,10
						v0.1l0,0.1c0.5,1.9,1.8,3.6,2.8,4.8l1.5,1.8l1-2.1l0.2-0.5c1.1-2.4,2.3-4.8,4-6.8c0.6-0.7,1.4-1.6,2-2.4
						c0.3-0.4,0.7-0.9,1.1-1.3l0.7-0.9l-0.8-0.8c-0.2-0.2-0.3-0.3-0.5-0.5c-1.6-1.6-3.6-3.6-6.4-4L62.6,166.4L62.6,166.4z"/>
				</g>
				<g>
					<path class="st5" d="M65,178.1c0.8-1.7,2-3.4,3.5-5.1c-0.9-1.3-2.6-1.8-4.4-2.3c-0.3-0.1-0.7-0.2-1-0.3l-1.1-0.3l0.4-0.4
						c0,0-0.1,0-0.1,0c-0.2,0-0.5-0.1-0.7-0.1h-0.9l0.2-0.8c0.2-0.8,0.3-1.6,0.5-2.4c0.4-2.3,0.9-4.7,2.5-6.7
						c1.5-1.8,2.4-3.4,3.5-5.3l1-1.6l0.7,0.5c0.5,0.4,1.5,1.1,1.9,1.9c0.5,1,0.7,1.9,0.6,2.8c1.3-2.3,2.4-4.7,2.5-7.3
						c-1.7,0.3-3.3,0.5-4.8,0.5c-3.7,0-6.6-1-8.7-2.9c-2.1-2-2.8-4.5-2.7-6.1c-0.4-3,1-5.8,3.4-7.3c11.9-7.4,104.1-66.4,107.2-68.6
						c0.7-0.5,1.4-0.7,2-0.7c1.6,0,2.4,1.5,2.5,3c0.4,3.2-1.3,6.2-2.9,8.4c-1.2,1.8-21.7,14.9-30.1,19.2l-1.6,0.9
						c-1,1.9-2.5,3.6-4.4,4.9c-1.5,1-3.1,2.1-4.6,3.2c-4.4,3.1-8.8,6.3-13.7,8.9c-3.9,2.1-7.4,3.2-10.8,3.3c-2.8,0.1-6,0.5-8.2,1.8
						c-8.7,5.1-29.1,18-31.3,20.3c-1.5,1.8-2,3.8-1.5,5.5c0.4,1.1,1.6,1.7,2.3,1.9c0.9,0.3,1.9,0.5,3.1,0.5c0.9,0,1.7-0.1,2.6-0.2
						c0.9-0.1,1.8-0.2,2.8-0.2c1.4,0,2.6,0.2,3.7,0.6c0.7,0.2,1.5,0.6,2.3,0.9c1.8,0.7,3.7,1.5,5.3,1.5c0.1,0,0.3,0,0.4,0
						c1.4-0.7,2.1-2,3-3.4c0.5-0.8,1-1.7,1.6-2.4c0.8-1,2-1.6,3.1-2.1c0.5-0.3,1.1-0.6,1.6-0.9l0.1-0.1l0.2,0
						c0.7-0.1,1.5-0.1,2.3-0.1c1.2,0,2.4,0.1,4,0.3l1,0.1l-0.4,0.8c-0.1,0.3-0.2,0.5-0.3,0.7c-0.6,1.3-1.3,2.6-2.7,3.9
						c2.6-0.5,5.2-0.7,7.3-0.7c0.5,0,1,0,1.4,0l2,0.1l-1.6,1.1c-0.5,0.3-1.1,0.7-1.6,1c-1.2,0.7-2.4,1.4-3.4,2.3l1.9,0.2l-1.6,1
						c-0.4,0.3-0.9,0.6-1.4,0.9c-1.6,1-3.6,2.3-6,3.1l0.7,0l-0.5,0.9c-0.2,0.3-0.4,0.7-0.6,1.1c-0.7,1.3-1.6,2.9-1.8,3.8
						c0,0.3,0.1,0.8,0.2,1.3c0,0.3,0.1,0.7,0.2,1l0.1,0.8l-0.9-0.1c-1.6-0.2-2.7-0.2-4-0.2h-0.2l0.1,0.3l-0.7,0.2
						c-1.6,0.4-3.1,0.7-4.7,1l-1.6,0.3c0.2,0.3,0.5,0.5,0.9,0.8l0.8,0.5l-0.8,0.5c-2.3,1.4-4.7,2.6-7.1,3.8c-0.5,0.3-1,0.5-1.6,0.7
						l-0.1,0c0,0,0.9,0.8,0.9,0.8l-0.7,0.4c-2.6,1.7-5.4,3.1-8.1,4.4c-0.5,0.3-1,0.5-1.6,0.8l-1.9,1L65,178.1z M66.5,166.5
						c0.2,0,0.4-0.1,0.5-0.1c-0.1,0-0.1,0-0.2,0l-0.2,0C66.5,166.4,66.5,166.4,66.5,166.5z M139.9,92.4c0,0.7-0.1,1.4-0.3,2.1
						c0.4-1,0.6-1.8,0.6-2.5c-0.1,0-0.2,0-0.3,0V92.4z"/>
					<path class="st6" d="M170.7,66.1c1.4,0,1.7,1.8,1.8,2.4c0.4,2.9-1.1,5.6-2.8,7.9c-1.1,1.6-21.3,14.6-29.8,19c0.9-1.8,1-3,1-4.1
						c-2.2,0.1-4,0.3-5.9,1.4c-4.1,2.4-29.2,19-32.5,21.3l0,0c1.9,0,26.3-16.3,31-19.3c1.3-0.9,2-2,5.5-2.3c-0.1,3-2.1,6.6-5.3,8.8
						c-6,4.1-11.7,8.6-18.2,12c-3.2,1.7-6.7,3.1-10.5,3.3c-2.8,0.1-6.2,0.5-8.5,1.9c-8,4.7-29.2,18-31.4,20.4
						c-1.4,1.7-2.2,4-1.6,6.1c0.4,1.1,1.6,1.9,2.7,2.3c1.1,0.4,2.2,0.6,3.3,0.6c1.8,0,3.6-0.3,5.4-0.3c1.1,0,2.3,0.1,3.4,0.6
						c2.3,0.8,5.3,2.5,7.9,2.5c0.2,0,0.5,0,0.7,0c2.5-1.3,3.2-4.1,4.9-6c1.1-1.3,3-1.9,4.5-2.9c0.7-0.1,1.5-0.1,2.2-0.1
						c1.3,0,2.6,0.1,3.9,0.3c-0.8,1.7-1.4,3.3-3.2,4.7c-2.2,1.1-4.6,1.9-6.7,3c-0.8,0.4-0.7,1.4-1.3,2c-1,0.9-2.5,1.1-3.6,1.8
						c1.5,0,2.4-0.3,3.5-1c1.4-0.7,0.7-1.9,2.2-2.6c3.7-2,9.5-3,14-3c0.5,0,0.9,0,1.4,0c-1.9,1.3-4.1,2.3-5.7,4
						c-1.7,0.1-3.6,0-5.2,0.7c0.2,0,0.4,0,0.7,0c1.4,0,3.4-0.3,4.8-0.3c0.2,0,0.5,0,0.7,0c-2.8,1.7-5.8,4.1-10.5,4.5
						c-1.5,0.3-3.3,0-4.2,1.3c2.1-0.3,4.3-0.7,6.5-0.7c0.3,0,0.5,0,0.8,0c-0.8,1.4-2.3,3.7-2.5,5.1c-0.1,0.6,0.2,1.7,0.3,2.4
						c-1.4-0.1-2.6-0.2-4.1-0.3c-0.4-1.7-1.4-5.5-1.1-5.6c0,0-3.1-0.3-4.9-0.6c-0.3-0.7-0.8-2.2-1.3-2.8c-1.1-0.2-2.4-0.3-3.9-0.5
						c0.8,0.8,2,1,3.1,1.2c0.5,1,1,1.9,1.4,2.9c1.6,0.1,3.1,0.3,4.7,0.6c0.3,1.8,0.6,3.6,1,5.3c-2.1,0.5-4.1,0.9-6.3,1.4
						c-1-0.9-1.1-3.7-1.1-3.8c0,0-3.4,0.7-5.4,1.7c0.5-1.7-0.2-2.9-0.4-4.1c-0.8-0.2-0.7-0.3-1.5-0.4c1.1,1.5,1.2,4,1,5.8
						c1.6-0.9,3.2-1.7,5.3-2.1c0,0.8,0.2,3.3,2.6,4.8c-2.7,1.7-5.6,3-8.5,4.5c-0.8-0.7-1.7-1.5-2.6-2.2c1.5-0.6,3-0.9,4.2-1.9
						c-0.2,0-0.4,0-0.6,0c-1.5,0-3,0.4-4.4,0.8c0,0.6,0,1.1,0,1.7c1.2,0.9,2.2,2,3.3,3c-3.1,1.9-6.4,3.5-9.6,5.2
						c0.9-1.9,2.2-3.7,3.7-5.4c-1.1-2.1-3.7-2.7-6-3.3c0.2-0.2,0.6-0.8,0.9-1c0,0,0,0,0-0.1c0,0,0,0,0,0.1c-0.3,0.3-0.6,0.3-1,0.3
						c-0.5,0-1.1-0.2-1.6-0.2l0,0c0.8-3,0.8-6.3,2.9-8.8c1.7-2.1,2.8-4,4.1-6.3c0.6,0.4,1.4,1.1,1.7,1.7c1,1.9,0.6,3.4-0.8,5.3
						c-1.6,2.2-3.5,4.3-4.2,6.9c2.6-0.6,5.9-1.4,6.6-4.1c-0.3-0.6-0.7-1.2-1-1.8c-0.1,1.5-0.3,3.2-1.8,4.1c-0.3,0.2-0.5,0.2-0.8,0.2
						c-0.4,0-0.9-0.1-1.3-0.2c1.4-1.7,2.9-3.4,3.9-5.3c2.2-3.2,4.2-6.8,4-10.7c-2.1,0.4-3.9,0.6-5.5,0.6c-9,0-10.8-5.9-10.6-8.4
						c-0.3-2.5,0.7-5.2,3.1-6.7c12-7.5,104-66.4,107.3-68.6C169.8,66.3,170.3,66.1,170.7,66.1 M170.7,64.8c-0.8,0-1.6,0.3-2.5,0.9
						C165.1,67.8,73,126.8,61,134.2c-2.7,1.6-4.1,4.7-3.7,7.8c0,1.7,0.7,4.5,2.9,6.5c2.2,2,5.3,3,9.2,3c1.3,0,2.6-0.1,4-0.3
						c-0.2,1.5-0.7,2.9-1.3,4.3c-0.1-0.3-0.2-0.5-0.4-0.8c-0.4-0.8-1.4-1.6-2.1-2.1l-1.4-1l-0.8,1.4c-0.2,0.3-0.4,0.6-0.5,0.9
						c-1.1,1.9-2,3.4-3.5,5.2c-1.7,2.1-2.2,4.6-2.7,7c-0.1,0.8-0.3,1.6-0.5,2.4l-0.4,1.6h1.1l-0.1,0.1l2.1,0.7
						c0.3,0.1,0.7,0.2,1,0.3c1.5,0.4,2.9,0.9,3.7,1.7c-1.4,1.7-2.4,3.3-3.3,4.9l-1.7,3.6l3.8-2c0.5-0.3,1-0.5,1.6-0.8
						c2.7-1.4,5.5-2.8,8.2-4.5l1.4-0.9l-0.8-0.8c0.3-0.1,0.5-0.3,0.8-0.4c2.4-1.2,4.9-2.3,7.1-3.8l1.6-1l-1.5-1c0.1,0,0.2,0,0.3,0
						c1.6-0.3,3.1-0.7,4.7-1l1.3-0.3l0-0.2c1,0,2,0.1,3.2,0.2l1.8,0.2l-0.2-1.7c0-0.3-0.1-0.7-0.2-1c-0.1-0.3-0.2-0.9-0.2-1.1
						c0.1-0.8,1.1-2.4,1.7-3.6c0.2-0.4,0.5-0.8,0.7-1.1l0.6-1c1.9-0.8,3.5-1.8,5-2.7c0.5-0.3,0.9-0.6,1.4-0.8l3.3-2l-2.2-0.2
						c0.7-0.4,1.4-0.9,2.1-1.3c0.5-0.3,1.1-0.7,1.6-1l3.3-2.2l-4.1-0.2c-0.5,0-1,0-1.5,0c-1.6,0-3.4,0.1-5.4,0.4
						c0.7-0.9,1.1-1.8,1.5-2.7c0.1-0.3,0.2-0.5,0.3-0.7l0.8-1.6l-1.9-0.3c-1.6-0.2-2.9-0.3-4.1-0.3c-0.8,0-1.6,0-2.4,0.1l-0.4,0
						l-0.3,0.2c-0.4,0.3-1,0.6-1.5,0.8c-1.1,0.6-2.4,1.2-3.3,2.3c-0.7,0.8-1.2,1.7-1.7,2.5c-0.7,1.3-1.5,2.4-2.5,3.1
						c0,0-0.1,0-0.2,0c-1.5,0-3.3-0.8-4.9-1.5c-0.8-0.3-1.6-0.7-2.3-0.9c-1.2-0.4-2.4-0.7-3.9-0.7c-1,0-1.9,0.1-2.9,0.2
						c-0.9,0.1-1.7,0.2-2.6,0.2c-1.1,0-2-0.1-2.8-0.4c-0.6-0.2-1.6-0.7-1.9-1.5c-0.4-1.6,0-3.3,1.4-5c2.2-2.3,22.7-15.2,31.1-20.1
						l0,0l0,0c2-1.3,5.2-1.6,7.8-1.7c3.5-0.2,7.2-1.3,11.2-3.4c4.9-2.6,9.4-5.8,13.8-8.9c1.5-1,3-2.1,4.5-3.2c1.9-1.3,3.4-3.1,4.5-5
						l1.5-0.7c7.9-4.1,28.8-17.3,30.3-19.4l0,0c1.6-2.3,3.5-5.4,3-8.8C173.7,66.1,172.5,64.8,170.7,64.8L170.7,64.8z"/>
				</g>
			</g>
		</g>
		<g>
			<g>
				<g>
					<path class="st5" d="M103.3,175.7c-2-1.5-2.9-3.7-3.6-5.8l-0.3-0.9c0,0,1.1-0.3,1.1-0.3l-0.2-0.7c-0.2-0.8-0.4-1.6-0.6-2.6
						l-0.1-0.4l0.4-0.2c3.3-1.7,6.2-2.5,8.9-2.7c0.9-0.1,1.9-0.1,2.8-0.1c0.6,0,1.3,0,1.9-0.1c1-0.8,1.6-1.9,2.3-3l0.1-0.3
						c0.7-1.1,0.5-2.4,0.2-3.8c-0.1-0.5-0.2-1-0.2-1.4l-0.1-1.3l1.3,0.7c1.1,0.6,3.2,0.7,4.4,0.8c1.1,0.1,1.5,0.1,1.7,0.4l0.2,0.3
						l-0.1,0.3c-0.9,2.2-1.6,6.2-1.6,8.5l0.3,0.4c1.6,2.1,3.2,4.4,3.8,6.9c0.6,1.8-0.9,3.2-2,4.2l0,0c-0.8,0.7-1.8,0.8-2.5,0.8
						c-0.3,0-0.6,0-1,0c-0.3,0-0.6,0-0.8,0l-1.2,0l0.3-0.9c0.3-1,0.7-1.9,1.1-2.8l0.1-0.3l-0.1-0.2c-0.3-0.4-0.6-0.9-0.9-1.3
						c-0.8-1.1-1.6-2.3-2-3.6c-0.6,0.5-1.3,1-2,1.4l-0.1,0h-0.1c-0.5,0.1-1.1,0.1-1.6,0.2c-1,0.1-2,0.1-2.9,0.5
						c-0.9,0.3-1.7,0.9-2.6,1.4c-0.6,0.3-1.2,0.7-1.8,1c-0.2,0.1-0.4,0.2-0.7,0.3l0.2,0.2v0.3c0,1-0.3,2-0.5,3
						c0,0.2-0.1,0.4-0.1,0.7l-0.2,1.1L103.3,175.7z M104.2,166.4c-0.3,0.2-0.6,0.4-0.9,0.7c-0.6,0.4-1.2,0.9-1.9,1.3l-0.1,0.1
						c0.9-0.3,1.7-0.7,2.2-1.3C103.7,166.9,103.9,166.7,104.2,166.4z"/>
					<path class="st6" d="M116.8,153.4c1.8,1,6,0.8,5.9,1.1c-1,2.3-1.7,6.5-1.7,8.9c1.6,2.3,3.4,4.6,4.2,7.3
						c0.5,1.5-0.9,2.7-1.9,3.7c-0.5,0.5-1.3,0.6-2,0.6c-0.6,0-1.2-0.1-1.8-0.1c0,0-0.1,0-0.1,0c0.3-0.9,0.7-1.8,1.1-2.7
						c0.6,0.1,1.2,0.2,1.6,0.2c0.5,0,1.1-0.1,1.6-0.5c0.3-0.2,0.5-0.1,0.5-0.4c-1.3-0.1-2.5-0.3-3.8-0.4c-1.2-1.9-3-3.6-3-5.9
						c-1,0.7-1.9,1.5-3,2.1c-1.6,0.2-3.2,0.1-4.7,0.7c-1.6,0.7-3,1.7-4.5,2.5c-0.1,0.1-0.3,0.2-0.5,0.2c-0.6,0-1.2-0.8-1.8-0.8
						c-0.2,0-0.4,0.1-0.6,0.3c0.7,0.6,1.5,1.1,2.2,1.7c0,1.2-0.4,2.4-0.7,3.6c-2-1.5-2.7-3.7-3.5-5.8c1.4-0.4,2.9-0.8,3.8-1.9
						c1.2-1.5,3.3-2.6,5-3.7c-4.3,0.4-5.6,2.5-8.1,4c-0.3-0.8-0.5-1.7-0.6-2.5c2.7-1.3,5.5-2.4,8.6-2.6c1.6-0.2,3.3-0.1,4.9-0.2
						c1.3-0.9,2-2.3,2.8-3.5C117.8,157.2,117,155.2,116.8,153.4 M115,150.8l0.3,2.7c0,0.5,0.1,1,0.2,1.4c0.2,1.3,0.5,2.4-0.1,3.3
						l0,0l0,0l-0.1,0.3c-0.6,1-1.2,1.9-2,2.6c-0.5,0-1.1,0-1.6,0c-0.9,0-1.9,0-2.9,0.1c-2.9,0.2-5.8,1.1-9.2,2.8l-0.9,0.4l0.1,0.9
						c0.2,1,0.4,1.9,0.7,2.7v0l-1.2,0.3l0.5,1.3l0.1,0.3c0.8,2.1,1.6,4.4,3.8,6.1l1.8,1.4l0.5-2.1c0-0.2,0.1-0.4,0.1-0.6
						c0.2-1,0.5-2,0.6-3.2v-0.2c0,0,0.1,0,0.1-0.1c0.6-0.3,1.2-0.7,1.8-1c0.9-0.5,1.6-1,2.5-1.3c0.8-0.3,1.7-0.4,2.7-0.4
						c0.5,0,1.1-0.1,1.6-0.2l0.2,0l0.2-0.1c0.5-0.3,0.9-0.5,1.3-0.8c0.4,1,1.1,2,1.7,2.8c0.3,0.4,0.6,0.8,0.9,1.3v0
						c-0.4,0.9-0.8,1.8-1.1,2.8l-0.6,1.8l2.1,0c0,0,0,0,0.1,0c0.2,0,0.5,0,0.8,0c0.3,0,0.7,0,1,0c0.8,0,2-0.1,3-1l0,0l0,0l0,0
						c1.1-1,2.9-2.7,2.2-4.8c-0.7-2.7-2.4-4.9-3.9-7.1l-0.2-0.3c0.1-2.3,0.7-6,1.6-8.1c0.1-0.4,0.1-0.8-0.1-1.2
						c-0.4-0.6-1.1-0.7-2.2-0.7c-1.1-0.1-3.2-0.2-4.1-0.7L115,150.8L115,150.8z"/>
				</g>
			</g>
			<g>
				<path class="st5" d="M123.9,155.6c-2.2-0.1-4.9-1.1-6.5-2.1c-0.4-0.3-0.9-0.5-1.5-0.8c-1.1-0.6-2.2-1.1-3.1-2l-0.5-0.6l0.7-0.4
					c1.4-0.7,2.9-1.3,4.4-1.8c1.2-0.4,2.4-0.9,3.5-1.4c0.7-0.7,1.4-1.3,2-2.1c1.2-1.3,2.4-2.8,4.2-3.7c4.7-2.4,13.1-6.4,16.2-7
					l1-0.2l-0.1,0.9c0,0.2,0,0.4,0,0.7c0,0.9,0,2-1.2,2.7c-0.4,0.3-0.8,0.5-1.2,0.7c0.4,0,0.8-0.1,1.3-0.1c0.3,0,0.6,0,1,0l0.5,0
					l0.1,0.4c0.4,1.7,0,3.5-0.6,4.4c-0.1,0.1-0.2,0.3-0.3,0.4c0.3,0,0.6,0,0.9,0h0.7v0.7c0,0.7-1,2.3-2.7,3c-2,0.9-4.9,1.9-7.7,1.9
					c-2.1,0-3.8-0.6-5.2-1.7l-0.7-0.6l0,0c-0.3,0-0.7,0-1.1,0c-0.3,0-0.6,0-0.9,0c-1,1.1-1.2,2.6-1.4,4l0,0.5l-0.5,0.1
					c-0.5,0.1-1,0.2-1.5,0.3h0c0,0,0,0.1,0,0.1c0.4,1,0.9,2,1.1,2.9l0.1,0.8L123.9,155.6z"/>
				<path class="st6" d="M143.4,134.2c-0.1,1,0.2,2.3-0.9,2.9c-3.4,2.1-6.4,3.3-10.2,4.9c0,0.1-0.9,0.6-0.9,0.7
					c3.4-1,7.8-3.7,11.6-3.7c0.3,0,0.6,0,0.9,0c0.4,1.6,0,3.3-0.5,3.9c-0.7,1-2.3,1.3-3.4,2.1c1.9-0.2,2.8-0.8,4.7-0.8
					c0,0.4-0.7,1.7-2.3,2.4c-2.3,1-4.9,1.8-7.4,1.8c-1.7,0-3.4-0.4-4.7-1.5c1.2-0.6,6.4-0.6,7.4-1.5c-3.2,0.2-6.4,0.7-9.7,0.7
					c-0.4,0-0.8,0-1.3,0c-1.3,1.3-1.6,3-1.8,4.7c-0.6,0.1-1.2,0.2-1.7,0.3c-0.3-0.9-0.3-2-1.4-2.4c0,2,1.8,4.2,2.2,6.1
					c-1.9-0.1-4.5-1-6.2-2c-1.5-0.9-3.2-1.5-4.4-2.7c2.5-1.3,5.3-2,7.9-3.3c2.1-1.9,3.5-4.4,6.2-5.8
					C129.6,140,140,134.8,143.4,134.2 M145,132.6l-1.9,0.3c-3.2,0.6-11.6,4.7-16.4,7l0,0l0,0c-1.9,1-3.2,2.5-4.4,3.9
					c-0.6,0.7-1.2,1.4-1.9,2c-1.1,0.5-2.2,0.9-3.3,1.3c-1.5,0.6-3,1.1-4.5,1.9l-1.5,0.8l1.1,1.2c0.9,1,2.2,1.7,3.3,2.2
					c0.5,0.3,1,0.5,1.4,0.7c1.6,1,4.5,2.1,6.9,2.2l1.8,0.1l-0.3-1.6c-0.1-0.8-0.5-1.7-0.9-2.4c0.2,0,0.4-0.1,0.7-0.1l1-0.2l0.1-0.9
					c0.2-1.3,0.4-2.5,1-3.5c0.2,0,0.4,0,0.5,0c0.2,0,0.5,0,0.8,0l0.5,0.4c1.5,1.2,3.4,1.9,5.7,1.9c3,0,6-1.1,8.1-2
					c1.9-0.8,3.1-2.5,3.1-3.6V143h-1.1c0.5-1.1,0.7-2.7,0.3-4.2l-0.2-0.9l-1-0.1h0c0.8-0.9,0.8-2,0.8-2.7c0-0.2,0-0.4,0-0.6
					L145,132.6L145,132.6z"/>
			</g>
		</g>
	</g>
</g>
</svg>
